# xmcd CD database file
#
# Track frame offsets:
#	150
#	4778
#	23056
#	44645
#	64631
#	78856
#	96976
#	109411
#	129102
#
# Disc length: 1958 seconds
#
# Revision: 2
# Processed by: cddbd v1.5.1PL0 Copyright (c) Steve Scherf et al.
# Submitted via: CDex 1.51
#
DISCID=6a07a409
DTITLE=Not Fragile - The Return
DYEAR=1995
DGENRE=Heavy Metal
TTITLE0=Intro
TTITLE1=Flight Of The Intruder
TTITLE2=Who Dares Wins
TTITLE3=Undertaker
TTITLE4=Hungry For Love
TTITLE5=Kiss Of Fire
TTITLE6=Homeless
TTITLE7=Don't Give Up
TTITLE8=W.I.R. (Unplugged)
EXTD=YEAR: 1995
EXTT0=
EXTT1=
EXTT2=
EXTT3=
EXTT4=
EXTT5=
EXTT6=
EXTT7=
EXTT8=
PLAYORDER=
